<?xml version="1.0" standalone="no"?>
<!DOCTYPE svg PUBLIC "-//W3C//DTD SVG 20010904//EN"
 "http://www.w3.org/TR/2001/REC-SVG-20010904/DTD/svg10.dtd">
<svg version="1.0" xmlns="http://www.w3.org/2000/svg"
 width="260.000000pt" height="260.000000pt" viewBox="0 0 260.000000 260.000000"
 preserveAspectRatio="xMidYMid meet">
<metadata>
Created by potrace 1.11, written by Peter Selinger 2001-2013
</metadata>
<g transform="translate(0.000000,260.000000) scale(0.100000,-0.100000)"
fill="#000000" stroke="none">
<path d="M52 1935 c-4 -5 -7 -295 -7 -643 l0 -633 251 2 c202 1 262 4 310 18
161 46 247 140 263 290 16 151 -42 260 -170 321 l-59 28 30 12 c45 19 103 90
122 150 25 76 20 220 -9 280 -56 116 -169 173 -353 179 -203 7 -372 5 -378 -4z
m458 -209 c56 -28 84 -77 83 -146 -1 -62 -17 -102 -55 -137 -36 -33 -65 -40
-174 -42 l-101 -2 0 177 0 176 106 -4 c72 -4 117 -11 141 -22z m41 -533 c53
-24 77 -49 94 -100 26 -76 1 -156 -63 -198 -50 -33 -109 -44 -223 -45 l-95 0
-1 178 c0 97 1 181 4 186 3 4 58 6 123 3 86 -3 129 -10 161 -24z"/>
<path d="M963 1940 c-18 -5 -18 -35 -18 -643 l0 -638 260 4 c143 2 274 7 290
11 123 30 227 119 260 221 27 86 18 203 -21 274 -32 61 -95 112 -158 131 l-41
12 36 19 c44 22 94 77 115 127 21 50 30 189 15 249 -33 134 -149 216 -325 229
-96 8 -391 10 -413 4z m410 -201 c81 -20 120 -72 119 -158 0 -62 -16 -103 -54
-138 -36 -34 -67 -41 -173 -39 l-100 1 -2 160 c-1 88 0 166 2 173 5 15 148 17
208 1z m30 -531 c98 -21 159 -96 151 -184 -6 -78 -41 -122 -124 -156 -25 -11
-70 -15 -150 -14 l-115 1 -1 183 -1 183 99 -2 c55 -1 118 -6 141 -11z"/>
<path d="M2087 1889 c-102 -24 -201 -107 -231 -194 -8 -26 -14 -72 -12 -109 4
-124 66 -178 323 -280 172 -69 200 -83 251 -130 54 -49 75 -101 75 -176 -1
-77 -20 -126 -68 -175 -123 -123 -329 -134 -538 -29 -38 20 -70 34 -71 32 -41
-65 -44 -59 44 -103 97 -49 161 -66 265 -72 203 -11 348 58 414 197 37 80 40
204 6 277 -46 101 -143 168 -350 243 -99 36 -189 80 -220 107 -92 82 -74 223
38 298 103 69 247 69 458 -1 17 -6 46 44 32 56 -11 10 -87 38 -120 45 -132 27
-224 31 -296 14z"/>
</g>
</svg>
